<?xml version="1.0" encoding="iso-8859-1"?>
<!-- Uploaded to: SVG Repo, www.svgrepo.com, Generator: SVG Repo Mixer Tools -->
<svg fill="#000000" height="800px" width="800px" version="1.1" id="Layer_1" xmlns="http://www.w3.org/2000/svg"
     viewBox="0 0 512 512" xml:space="preserve">
<g>
	<g>
		<path d="M495.304,88.348V55.652c0-27.618-22.469-50.087-50.087-50.087H294.957c-21.768,0-40.336,13.956-47.226,33.391h-52.948
			c-27.618,0-50.087,22.469-50.087,50.087c0,27.947,22.677,50.087,50.087,50.087h100.174c21.768,0,40.336-13.956,47.226-33.391
			h51.498l-13.913,166.957h-45.855v-83.478c0-13.326-14.89-21.271-25.956-13.891l-124.305,82.869v-68.979
			c0-13.324-14.887-21.273-25.956-13.891L7.435,275.501C2.789,278.597,0,283.808,0,289.391v200.348
			c0,9.22,7.475,16.696,16.696,16.696h478.609c9.22,0,16.696-7.475,16.696-16.696V289.391
			C512,288.313,501.516,162.893,495.304,88.348z M477.159,272.696h-63.884l2.783-33.391h58.319L477.159,272.696z M471.594,205.913
			h-52.754l2.783-33.391h47.189L471.594,205.913z M466.029,139.13h-41.623l2.783-33.391h36.058L466.029,139.13z M328.348,72.348
			c-9.22,0-16.696,7.475-16.696,16.696c0,9.206-7.49,16.696-16.696,16.696H194.783c-9.247,0-16.696-7.487-16.696-16.696
			c0-9.206,7.49-16.696,16.696-16.696h66.783c9.22,0,16.696-7.475,16.696-16.696c0-9.206,7.49-16.696,16.696-16.696h150.261
			c9.206,0,16.696,7.49,16.696,16.696v16.696h-50.087H328.348z M478.609,473.043H33.391V298.326l116.87-77.913v68.979
			c0,13.326,14.89,21.271,25.956,13.891l124.305-82.869v68.979c0,9.22,7.475,16.696,16.696,16.696c3.552,0,159.163,0,161.391,0
			V473.043z"/>
	</g>
</g>
<g>
	<g>
		<path d="M217.043,339.478H83.478c-9.22,0-16.696,7.475-16.696,16.696v66.783c0,9.22,7.475,16.696,16.696,16.696h133.565
			c9.22,0,16.696-7.475,16.696-16.696v-66.783C233.739,346.953,226.264,339.478,217.043,339.478z M133.565,406.261h-33.391V372.87
			h33.391V406.261z M200.348,406.261h-33.391V372.87h33.391V406.261z"/>
	</g>
</g>
<g>
	<g>
		<path d="M417.391,339.478H283.826c-9.22,0-16.696,7.475-16.696,16.696v66.783c0,9.22,7.475,16.696,16.696,16.696h133.565
			c9.22,0,16.696-7.475,16.696-16.696v-66.783C434.087,346.953,426.612,339.478,417.391,339.478z M333.913,406.261h-33.391V372.87
			h33.391V406.261z M400.696,406.261h-33.391V372.87h33.391V406.261z"/>
	</g>
</g>
</svg>